<?xml version="1.0" encoding="utf-8"?>
<!-- Generator: Adobe Illustrator 19.1.0, SVG Export Plug-In . SVG Version: 6.00 Build 0)  -->
<svg version="1.1" id="Layer_1" xmlns="http://www.w3.org/2000/svg" xmlns:xlink="http://www.w3.org/1999/xlink" x="0px" y="0px"
	 viewBox="0 0 2500 2500" style="enable-background:new 0 0 2500 2500;" xml:space="preserve">
<style type="text/css">
	.st0{fill:#707A83;}
	.st1{fill:#EA9071;}
</style>
<g>
	<g>
		<g>
			<path class="st0" d="M1731,1717.1c19,19,37.9,37.9,56.9,56.9c-321.1-323.5-663-664.4-964.7-969.5c-18.7-19.2-56.2-57.6-74.9-76.9
				c-150.9-152.3-340.8-341.8-493-493C179.1,159,119.6,104.8,119.6,104.8c-19.5-18.5-39.4-36.5-20.9-17.1
				c37.7,38.2,132.5,133,131.5,133.9c-0.2,0.2-19.1-18.7-38.1-37.6c-1,1-59.8-54-78.7-72.9C93.8,92.5-21.4-19.8-40.8-38.3
				C-98.5-94.4,68.6,79.9,143.7,156.4c37.5,38.4-1.2,1.2-1.9,1.9c38.2,37.7,56.4,57.4,94.6,95.1c-0.2,0.2,113.2,114.2,170.1,171.1
				c0,0,19.2,18.7,76.1,75.6c19,19,19.2,18.7,19.5,18.5c-0.2,0.2-0.2,0.2-0.5,0.5c19.5,18.5,56.9,56.9,76.2,75.7
				c-0.2,0.2-0.2,0.2-0.5,0.5c38.4,37.4,75.8,75.8,114,113.5c-0.2,0.2-0.2,0.2-0.5,0.5c19,19,37.9,37.9,37.7,38.1
				c-0.2,0.2-0.2,0.2-0.5,0.5c18.8,19.2,57.2,56.7,56.7,57.2c0.2-0.2,0.2-0.2,0.5-0.5c75.9,75.9,132.5,133,189.2,190.1
				c150.7,152.6,340.9,341.8,512,512c19,19,38.4,37.4,19.9,18c19,19,38,38,56.9,56.9c37.9,37.9,19.7,18.2,57.6,56.1
				c304.7,302.3,606.9,606.9,911,909.6c-75.6-76.1-132.1-133.5-208.1-209.1c0.2-0.2,0.7-0.7-18.2-19.7
				c-113.6-114.1-246.8-246.3-302.7-304.2c-18.7-19.2-36.9-38.9-93.9-95.8c19,19,38,38,56.9,56.9c0.2-0.2,0.7-0.7,0.7-0.7
				c-75.6-76.1-170.3-171.2-245.9-247.3c0,0,0.5-0.5,0.7-0.7l-37.9-37.9c-36.2-39.6,172.1,169.2,267.2,263.8c0.2-0.2,0.7-0.7,1-1
				l-38-38l0.5-0.5c113.8,113.8,208.6,208.6,322.4,322.4c-19-19-56.9-56.9-75.9-75.9c0.2-0.2,0.5-0.5-18.5-19.4
				c75.9,75.9,170.5,171,246.8,246.3c19.2,18.7,1-1-55.7-58.1c-56.9-56.9-94.8-94.8-151.8-151.8l0.5-0.5
				c38,38,94.6,95.1,132.8,132.8c19.2,18.7-37.2-38.7-18-20c19,19,38,38,57.2,56.7c-57-57-133-132.6-189.7-189.7
				c-18.7-19.2-37.4-38.4-37-38.9c-95-94.5-170.1-171.1-225.8-229.2C1883,1868.7,1787.9,1774,1731,1717.1z"/>
		</g>
	</g>
</g>
<g>
	<g>
		<g>
			<path class="st0" d="M1698.2,787.7c19.5-19.5,38.8-38.8,58.2-58.2c-331,328.5-679.8,678.2-992,986.9
				c-19.7,19.2-59,57.5-78.6,76.7c-155.9,154.4-349.7,348.7-504.4,504.3c-77.4,77.9-132.9,138.7-132.9,138.7
				c-19,19.9-37.4,40.3-17.5,21.4c39.1-38.6,136-135.5,137-134.6c0.2,0.2-19.1,19.6-38.5,39c1,1-55.3,61.1-74.7,80.5
				c-19,19.9-133.9,137.7-152.9,157.6c-57.5,58.9,120.8-112.1,199.1-188.9c39.3-38.3,1.2,1.2,1.9,1.9c38.6-39.1,58.7-57.8,97.3-96.8
				c0.2,0.2,116.8-115.8,175.1-174.1c0,0,19.2-19.7,77.4-77.8c19.4-19.4,19.2-19.7,18.9-19.9c0.2,0.2,0.2,0.2,0.5,0.5
				c19-19.9,58.3-58.2,77.4-77.9c0.2,0.2,0.2,0.2,0.5,0.5c38.3-39.2,77.6-77.6,116.1-116.6c0.2,0.2,0.2,0.2,0.5,0.5
				c19.4-19.4,38.8-38.8,39-38.5c0.2,0.2,0.2,0.2,0.5,0.5c19.7-19.2,58-58.5,58.5-58c-0.2-0.2-0.2-0.2-0.5-0.5
				c77.6-77.6,136.1-135.6,194.5-193.5c156.2-154.2,349.8-348.7,523.9-523.8c19.4-19.4,38.3-39.3,18.4-20.4
				c19.4-19.4,38.9-38.8,58.2-58.2c38.8-38.8,18.7-20.1,57.5-58.9c309.3-311.7,621-620.9,930.8-932
				c-77.9,77.4-136.6,135.1-213.9,212.9c-0.2-0.2-0.7-0.7-20.1,18.7c-116.7,116.2-252,252.5-311.2,309.7c-19.7,19.2-39.8,37.8-98,96
				c19.4-19.4,38.8-38.8,58.3-58.2c-0.2-0.2-0.7-0.7-0.7-0.7c-77.9,77.4-175.2,174.2-253.1,251.5c0,0-0.5-0.5-0.7-0.7l-38.8,38.8
				c-40.5,37.1,173.2-176.1,270-273.3c-0.2-0.2-0.7-0.7-1-1l-38.8,38.8l-0.5-0.5c116.5-116.4,213.4-213.4,329.9-329.8
				c-19.4,19.4-58.3,58.3-77.7,77.7c-0.2-0.2-0.5-0.5-19.9,18.9c77.6-77.6,174.9-174.4,252-252.5c19.1-19.6-1-1-59.4,57
				c-58.2,58.2-97,97-155.3,155.2l-0.5-0.5c38.8-38.8,97.3-96.8,135.9-135.8c19.2-19.7-39.6,38.1-20.4,18.5
				c19.4-19.4,38.9-38.8,58.1-58.5c-58.3,58.3-135.7,136.1-194.1,194.1c-19.6,19.1-39.3,38.3-39.8,37.8
				c-96.7,97.2-175.1,174.1-234.5,231.1C1853.2,632.2,1756.4,729.6,1698.2,787.7z"/>
		</g>
	</g>
</g>
<g>
	<g>
		<path class="st1" d="M2484,25v2450H25V25H2484 M2509,0H0v2500h2509V0L2509,0z"/>
	</g>
</g>
</svg>
