<?xml version="1.0" encoding="utf-8"?>
<!-- Generator: Adobe Illustrator 19.1.0, SVG Export Plug-In . SVG Version: 6.00 Build 0)  -->
<svg version="1.1" id="Layer_1" xmlns="http://www.w3.org/2000/svg" xmlns:xlink="http://www.w3.org/1999/xlink" x="0px" y="0px"
	 viewBox="0 0 430.6 450.1" style="enable-background:new 0 0 430.6 450.1;" xml:space="preserve">
<style type="text/css">
	.st0{fill:#FFFFFF;}
</style>
<path d="M257.8,39.2c0-17.8-14.5-32.3-32.3-32.3h-23.1c-17.8,0-32.3,14.5-32.3,32.3v29.6c8.6-3.8,24.2-9.3,44.4-9.3
	c20,0,35.5,5.5,44.1,9.3C258.4,58.9,258.1,49.1,257.8,39.2z M174.9,63.8c-4.7-52.7,24.8-48.4,24.8-48.4
	C174.7,18.5,174.9,63.8,174.9,63.8z"/>
<path d="M312.2,117.1c-26.5-33.2-61.8-51.4-99.4-51.4s-72.9,18.3-99.4,51.4c-4.2,5.2-8.1,10.8-11.7,16.5
	c-6.5,10.5-12,21.8-16.3,33.7c-8.2,22.4-12.5,46.9-12.5,72.2c0,27.2,5,53.4,14.4,77c5.2,13.2,11.9,25.6,19.8,36.9
	c2,2.9,4.1,5.7,6.3,8.5c24.6,30.8,56.9,48.8,91.5,51.2c4.3,10.4-0.5,27.6-0.5,27.6c18-10.2,23.7-21.7,25.6-28.7
	c31.1-4.7,59.8-22.1,82.2-50.1c1.6-2,3.2-4,4.7-6.1c6.6-9.1,12.3-18.9,17.2-29.3c12.2-26.1,18.7-55.9,18.7-87
	C352.7,193.4,338.3,149.9,312.2,117.1z M326.3,313.1c-6.5,16-15,30.4-25.1,42.8c-8.6,10.5-18.4,19.5-29,26.6l-0.5,0.8h-0.8
	c-13.2,8.6-27.6,14.3-42.9,16.6c-5,0.8-10,1.1-15.2,1.1c-9.3,0-18.4-1.3-27.1-3.7c-11.7-3.2-22.8-8.5-33-15.5
	c-5.4-3.7-10.6-7.8-15.5-12.4l0,0c-5.2-4.8-10.1-10.2-14.6-15.9c-11.4-14.5-20.7-31.7-27.1-50.8c-1.4-4.2-2.7-8.5-3.8-12.9
	c-2-7.7-3.5-15.6-4.6-23.8v0c0-0.2-0.1-0.4-0.1-0.7c-0.2-1.5-0.4-3-0.5-4.5c-0.7-7-1.1-14-1.1-21.3c0-5.2,0.2-10.4,0.6-15.5
	c0.3-3.8,0.7-7.6,1.2-11.3l-1.6,2.6l1.7-3.2v0c0.5-4,1.2-7.9,2-11.8v0c1.2-6.3,2.8-12.5,4.6-18.5c5.4-17.7,13.2-34,22.9-48.1
	c19-27.7,45.3-47.1,75.1-53.4c6.8-1.5,13.9-2.2,21-2.2c3.6,0,7.2,0.2,10.8,0.6c34.5,3.7,65.2,24.9,86.4,56.5
	c0.6,0.9,2.1,3.3,2.3,3.5c6.8,10.7,12.5,22.5,17,35.2c7.1,20.1,11,42.3,11,65.7C340.3,266,335.2,291,326.3,313.1z"/>
<path d="M68.2,157.4H27.3c-10.4,0-19,8.5-19,19v0c0,10.4,8.5,19,19,19h40.9c0,0-0.3-20.8,12.5-38H68.2z"/>
<path d="M353.3,299.3h36.6c10.4,0,19,8.5,19,19v0c0,10.4-8.5,19-19,19h-40.9h-9.4C339.7,337.2,347.5,323.7,353.3,299.3z"/>
<path d="M357.7,158h40.9c10.4,0,19,8.5,19,19v0c0,10.4-8.5,19-19,19h-40.9c0,0-2.2-27.6-11.3-38H357.7z"/>
<path d="M77,337.2H36.2c-10.4,0-19-8.5-19-19v0c0-10.4,8.5-19,19-19h37.9c0,0,5,24.6,13.3,38H77z"/>
<path d="M222.5,189.6h-29.3l-14.7,25.4l14.7,25.4h29.3l14.7-25.4L222.5,189.6z M195.2,194l-12.7,20.1l11.8-22.3h26.1L195.2,194z"/>
<path d="M234.3,378.8c-6.4,1.6-13.1,2.4-19.9,2.4c-9.8,0-19.3-1.7-28.3-5h0l8.8-13.9v0l25.1-2.2l0.1,0H194v0l-8.4,15.9
	c-1-0.4-2-0.8-2.9-1.1l10-17.4H222L234.3,378.8z"/>
<path d="M222.5,133.7h-29.3l-14.7,25.4l14.7,25.4h29.3l14.7-25.4L222.5,133.7z M195.8,138.6l-12.7,20.2l11.8-22.3H221L195.8,138.6z"
	/>
<path d="M222.5,245.4h-29.3l-14.7,25.4l14.7,25.4h29.3l14.7-25.4L222.5,245.4z M195,250.4l-12.7,20.1l11.8-22.3h26.1L195,250.4z"/>
<path d="M271.5,218.1h-29.3l-14.7,25.4l14.7,25.4h29.3l14.7-25.4L271.5,218.1z M244,223.2l-12.7,20.2l11.8-22.3h26.1L244,223.2z"/>
<path d="M271.5,162.3h-29.3l-14.7,25.4l14.7,25.4h29.3l14.7-25.4L271.5,162.3z M244.6,167.5l-12.7,20.2l11.8-22.3h26.1L244.6,167.5z
	"/>
<path d="M271.5,273.9h-29.3l-14.7,25.4l14.7,25.4h29.3l14.7-25.4L271.5,273.9z M244.3,278.3l-12.7,20.1l11.8-22.3h26.1L244.3,278.3z
	"/>
<path d="M124.5,188h-9.8c-0.3,1.1-0.6,2.2-1,3.4v0h9.4l-9.7,0.8c-3.9,14.6-6,30.2-6.1,46.6h17l14.7-25.4L124.5,188z"/>
<path d="M139.1,157.6L124.5,183h-8.2c4.3-13.1,10-25.1,16.9-35.8L139.1,157.6z"/>
<path d="M124.5,243.9h-17c0,0.8,0,1.6,0.1,2.4h14.5l-0.1,0l-14.4,1.3c0.7,16.6,3.6,32.5,8.2,47.1h8.6l14.7-25.4L124.5,243.9z"/>
<path d="M173.5,216.6h-29.3L129.5,242l14.7,25.4h29.3l14.7-25.4L173.5,216.6z M146.6,221.2l-12.7,20.1l11.8-22.3h26.1L146.6,221.2z"
	/>
<path d="M173.5,160.7h-29.3l-14.7,25.4l14.7,25.4h29.3l14.7-25.4L173.5,160.7z M146,166l-12.7,20.1l11.8-22.3h26.1L146,166z"/>
<path d="M173.5,272.4h-29.3l-14.7,25.4l14.7,25.4h29.3l14.7-25.4L173.5,272.4z M146.3,276.7l-12.7,20.1l11.8-22.3h26.1L146.3,276.7z
	"/>
<path d="M222.6,301.2h-29.3l-14.7,25.4l14.7,25.4h29.3l14.7-25.4L222.6,301.2z M195.8,305.3l-12.7,20.1l11.8-22.3H221L195.8,305.3z"
	/>
<path d="M188.1,354.9l-10.3,17.8c-13.9-6.7-26.5-17.2-37.1-30.4l5.2-8.2v0l25.1-2.2l0.1,0H145v0l-5,9.4c-0.5-0.7-1-1.3-1.5-2v0
	l5.7-9.8h29.3L188.1,354.9z"/>
<path d="M271.5,330.9h-29.3l-14.7,25.4l12.1,21c15.8-5.1,30.3-14.8,42.5-28L271.5,330.9z M270,333.3l-25.1,2.2v0l-12.7,20.1
	l11.8-22.3v0L270,333.3L270,333.3z"/>
<path d="M292.2,246.4l-14.7,25.4l14.7,25.4h20.1c5.3-15.6,8.5-32.8,9.1-50.8H292.2z M294.5,251l-12.7,20.1l11.8-22.3h26.1L294.5,251
	z"/>
<path d="M321.5,239.4c0,0.9,0,1.7,0,2.5h-29.3l-14.7-25.4l14.7-25.4h23c0.2,0.8,0.4,1.6,0.6,2.4h-22.2v0l-11.8,22.3l12.7-20.1v0
	l21.4-1.8C319.5,208.2,321.5,223.5,321.5,239.4z"/>
<path d="M188.1,130.3l-14.7,25.4h-29.3l-7.7-13.4c10.7-15.1,23.8-27,38.5-34.8h0L188.1,130.3z"/>
<path d="M313.2,184.5h-20.4l-14.7-25.4l11.7-20.3c0.6,0.8,1.2,1.6,1.8,2.5v0l-9.3,17.6l10.3-16.3
	C301.3,154.7,308.3,168.9,313.2,184.5z"/>
<path d="M256.8,109.1L256.8,109.1c-0.7-0.4-1.4-0.8-2.2-1.2c-1.5-0.8-3.1-1.6-4.6-2.3h-7.2l-14.7,25.4l14.7,25.4h29.3l13.3-23.1
	C277,123.3,267.3,115.1,256.8,109.1z M245.5,110l-12.7,20.1l11.8-22.3h10c0.7,0.4,1.4,0.8,2.2,1.2L245.5,110z"/>
<path d="M237.3,101.2l-14.7,25.4h-29.3l-12.6-21.8c10.6-4.7,22-7.2,33.8-7.2c7.7,0,15.3,1.1,22.5,3.1L237.3,101.2z"/>
<path d="M293.6,306l-11.8,22.3l12.7-20.2v0l14.1-1.2c-5.8,14.1-13.3,26.8-22.2,37.5l-8.9-15.5l14.7-25.4H310c-0.3,0.8-0.6,1.6-1,2.4
	L293.6,306L293.6,306z"/>
<path d="M139.1,326.6l-4.4,7.5c-6.7-9.8-12.3-20.9-16.7-32.9h6.4L139.1,326.6z"/>
<polygon class="st0" points="122.1,246.3 107.6,247.6 122,246.3 "/>
</svg>
